<?xml version='1.0' encoding='iso-8859-1'?>
<!-- Uploaded to: SVG Repo, www.svgrepo.com, Generator: SVG Repo Mixer Tools -->
<svg fill="#ffffff" height="800px" width="800px" version="1.1" xmlns="http://www.w3.org/2000/svg" viewBox="0 0 413.811 413.811" xmlns:xlink="http://www.w3.org/1999/xlink" enable-background="new 0 0 413.811 413.811">
  <path d="m236.317,225.213c32.838,28.718 72.183,41.32 102.792,32.896 19.452-5.355 33.59-18.927 39.811-38.218 3.546-10.998 4.777-22.53 5.968-33.683 2.232-20.912 4.34-40.664 20.145-59.723 8.913-10.748 11.053-19.782 6.359-26.85-4.707-7.088-14.787-9.809-32.69-8.819-12.486,0.69-29.219,3.281-49.734,7.701-26.224,5.65-58.044,14.083-97.052,25.726v-0.966c0-3.747-0.829-7.305-2.312-10.499l49.867-99.736c1.976-3.952 0.374-8.757-3.578-10.733-3.952-1.978-8.757-0.375-10.733,3.578l-47.424,94.85c-3.279-1.582-6.952-2.468-10.83-2.468-3.75,0-7.312,0.83-10.507,2.316l-47.76-94.723c-1.99-3.946-6.802-5.531-10.745-3.542-3.945,1.989-5.531,6.8-3.542,10.745l50.06,99.286c-1.61,3.302-2.515,7.01-2.515,10.925v0.966c-39.01-11.643-70.831-20.076-97.053-25.726-20.516-4.42-37.249-7.011-49.734-7.701-17.895-0.988-27.983,1.731-32.69,8.819-4.693,7.068-2.553,16.102 6.36,26.85 15.805,19.059 17.913,38.812 20.145,59.724 1.19,11.153 2.421,22.686 5.967,33.683 6.219,19.291 20.357,32.863 39.809,38.218 14.051,3.867 29.94,3.305 46.197-1.214 0.054-0.015 0.107-0.029 0.16-0.045 19.108-5.341 38.721-16.146 56.435-31.637 0.337,1.998 0.68,4.004 1.028,6.037 2.833,16.56 5.76,33.677 7.928,60.118-0.075,1.126-0.154,2.353-0.239,3.669-0.922,14.322-2.466,38.293-7.066,58.736-2.181,9.691-4.808,17.389-7.703,22.778-14.355-8.111-31.389-25.423-21.46-49.288 1.674-4.022-0.18-8.645-4.169-10.397-13.169-5.785-26.374-20.516-26.187-40.385 0.042-4.418-3.506-8.033-7.924-8.075-4.404-0.007-8.033,3.507-8.075,7.924-0.201,21.4 11.044,41.016 29.169,51.798-6.512,23.901 5.427,44.467 22.91,57.314-20.565,0.034-31.086,4.495-38.233,7.526-2.2,0.933-4.101,1.739-5.754,2.176-3.047,0.806-4.994,1.184-5.913,1.208-1.17-1.087-3.586-5.159-5.926-9.104-7.611-12.83-21.779-36.712-57.796-77.983-12.661-14.507-5.255-31.273 3.187-42.783 2.613-3.563 1.843-8.569-1.719-11.182-3.561-2.612-8.57-1.843-11.182,1.719-16.576,22.6-17.429,45.477-2.34,62.767 35.057,40.17 48.739,63.235 56.09,75.626 4.667,7.867 7.238,12.201 11.678,14.836 2.618,1.554 5.317,2.102 7.999,2.102 3.436,0 6.842-0.9 10.011-1.737 2.76-0.729 5.263-1.791 7.914-2.915 7.218-3.061 16.197-6.871 36.839-6.177 0.283,0.009 0.563,0.014 0.842,0.014 23.396,0 30.877-33.24 33.354-44.25 3.338-14.835 5.138-31.116 6.247-44.657 1.956,0.647 3.957,0.965 5.901,0.965 0.001,0 0.001,0 0.002,0 1.945,0 3.949-0.317 5.906-0.966 1.109,13.541 2.909,29.823 6.247,44.658 2.506,11.14 10.143,44.996 34.194,44.236 20.64-0.696 29.621,3.116 36.839,6.177 2.652,1.125 5.156,2.187 7.916,2.916 5.642,1.491 12.036,3.181 18.007-0.364 4.439-2.635 7.009-6.968 11.675-14.833 7.351-12.391 21.033-35.456 56.093-75.629 14.977-17.16 14.24-39.878-2.021-62.329-2.591-3.578-7.593-4.377-11.172-1.786-3.578,2.592-4.378,7.593-1.786,11.172 8.265,11.411 15.481,28.034 2.924,42.423-36.021,41.274-50.188,65.156-57.799,77.986-2.339,3.943-4.753,8.013-5.923,9.1-0.002,0-0.004,0-0.006,0-0.885,0-2.867-0.406-5.905-1.208-1.654-0.437-3.555-1.243-5.756-2.176-7.147-3.031-17.667-7.492-38.232-7.526 17.486-12.849 29.428-33.417 22.909-57.323 17.768-10.628 28.897-29.966 28.883-51.095-0.003-4.417-3.584-7.995-8-7.995-0.001,0-0.004,0-0.005,0-4.418,0.003-7.998,3.587-7.995,8.005 0.012,17.279-10.154,32.914-25.898,39.831-3.989,1.752-5.842,6.375-4.168,10.397 9.929,23.864-7.105,41.176-21.461,49.287-2.895-5.389-5.522-13.087-7.702-22.777-4.6-20.443-6.144-44.414-7.066-58.736-0.084-1.317-0.164-2.544-0.239-3.67 2.168-26.438 5.095-43.558 7.927-60.116 0.345-2.034 0.688-4.042 1.025-6.039zm161.371-116.91c-0.276,1.027-1.285,3.521-4.973,7.968-18.886,22.774-21.463,46.928-23.738,68.238-1.155,10.822-2.246,21.044-5.286,30.471-4.576,14.191-14.545,23.77-28.83,27.702-5.089,1.401-10.492,2.089-16.141,2.046 6.872-6.301 11.765-14.379 14.159-23.719 3.53-13.766 1.011-28.245-6.548-39.691 9.766-7.676 17.265-19.068 21.14-32.427 3.779-13.03 3.516-26.318-0.58-37.68 38.732-7.278 48.589-4.152 50.797-2.908zm-158.172,30.37c35.874-10.656 65.438-18.504 90.088-23.921 0.458-0.101 0.917-0.201 1.368-0.299 3.793,8.595 4.231,19.301 1.133,29.982-3.62,12.482-11.563,22.917-21.248,27.913-2.274,1.173-3.85,3.363-4.239,5.892s0.454,5.092 2.27,6.895c8.197,8.14 11.452,20.364 8.494,31.901-1.705,6.648-6.95,18.326-22.991,23.714-16.053-4.973-32.668-14.491-47.908-27.902l-7.263-6.391c2.004-14.859 3.372-31.489 3.372-55.183 0.001-4.493-1.086-8.793-3.076-12.601zm-160.568,104.009c-14.284-3.932-24.252-13.511-28.828-27.702-3.039-9.426-4.13-19.648-5.285-30.47-2.274-21.311-4.853-45.464-23.738-68.239-3.688-4.448-4.697-6.942-4.973-7.969 2.208-1.244 12.069-4.368 50.796,2.909-4.096,11.362-4.359,24.651-0.58,37.681 3.873,13.354 11.369,24.744 21.13,32.419-7.656,11.542-10.216,26.144-6.66,40.018 2.358,9.197 7.149,17.162 13.872,23.399-5.491-0.008-10.77-0.679-15.734-2.046zm88.377-29.834c-15.35,13.509-32.095,23.068-48.256,28.01-15.877-5.338-21.072-16.912-22.761-23.501-2.983-11.639 0.317-23.986 8.613-32.223 1.816-1.803 2.66-4.366 2.27-6.895-0.389-2.529-1.965-4.719-4.239-5.892-9.684-4.996-17.627-15.43-21.247-27.911-3.098-10.682-2.66-21.388 1.133-29.983 0.452,0.098 0.91,0.198 1.368,0.299 24.648,5.417 54.211,13.265 90.087,23.921-1.991,3.808-3.078,8.107-3.078,12.601 0,23.694 1.368,40.324 3.372,55.183l-7.262,6.391zm52.193,15.705c-2.771,16.204-5.912,34.566-8.141,61.968-0.008,0.081-0.015,0.161-0.02,0.242-0.41,4.717-2.526,6.83-4.454,6.83-1.926,0-4.041-2.112-4.45-6.828-0.005-0.082-0.012-0.164-0.02-0.245-2.229-27.403-5.37-45.764-8.142-61.969-3.796-22.196-7.075-41.366-7.075-77.277 0-4.203 2.456-8.146 6.257-10.045 2.711-1.355 4.423-4.125 4.423-7.156v-10.796c0-1.958 0.627-3.771 1.692-5.25 0.179-0.205 0.347-0.417 0.503-0.637 1.653-1.911 4.094-3.121 6.813-3.121h0.002c4.967,0 9.008,4.041 9.008,9.008v10.796c0,3.03 1.712,5.8 4.421,7.155 0.214,0.106 0.423,0.22 0.628,0.339 0.009,0.005 0.018,0.01 0.026,0.015 3.426,2.009 5.602,5.736 5.602,9.692 0.002,35.912-3.277,55.082-7.073,77.279z"/>
</svg>